<svg width="34" height="30" viewBox="0 0 34 30" fill="none" xmlns="http://www.w3.org/2000/svg">
<path fill-rule="evenodd" clip-rule="evenodd" d="M26.5438 0C30.147 0 33.1533 2.25513 33.8485 5.25305C33.9478 5.68134 34 6.12476 34 6.57895V23.4211C34 27.0545 30.6617 30 26.5438 30H7.45615C6.6409 30 5.85624 29.8845 5.12196 29.6713C2.14731 28.8068 0 26.3353 0 23.4211V6.57895C0 2.9455 3.33824 0 7.45615 0H26.5438ZM23.5196 2.10526H26.5438C29.0148 2.10526 31.073 3.665 31.5228 5.72953C30.0879 5.87297 28.4475 5.74005 26.7153 5.08508C25.1806 4.50461 24.1623 3.42921 23.5196 2.10526ZM16.4402 2.10526H20.972C21.7251 4.10513 23.1674 6.03384 25.7756 7.0201C27.8678 7.81126 29.8547 7.99479 31.614 7.84063V9.99176C29.2254 10.659 26.8451 10.929 24.9405 10.4371C23.9944 10.1928 22.9088 9.54416 21.7406 8.52374C20.5885 7.51729 19.4387 6.22284 18.3531 4.80789C17.6785 3.9286 17.0361 3.01266 16.4402 2.10526ZM13.7 2.10526H10.5428C10.6867 4.48755 10.0505 7.39742 7.68404 10.3453C6.11622 12.2983 4.26218 13.3724 2.38597 13.8521V18.0492C3.5165 17.4434 4.84742 16.6161 6.40567 15.4989C10.0875 12.8593 12.9874 11.8091 15.1863 11.617C17.3725 11.426 18.9266 12.0952 19.6111 12.9409C20.3299 13.8287 20.7361 15.0184 20.8891 16.2732C21.0439 17.5432 20.9496 18.9597 20.5864 20.3655C19.8649 23.1603 18.0328 26.0692 14.7323 27.6374C14.5526 27.7229 14.3713 27.8087 14.1885 27.8947H17.8971C19.3475 26.27 20.5082 24.6558 20.9246 23.3908C21.3943 21.9626 21.5873 20.4487 21.7674 19.0334C21.8322 18.5253 21.8957 18.0287 21.9693 17.5542C22.0973 16.7321 22.2739 15.8611 22.6529 15.2329C22.8536 14.9005 23.1725 14.5305 23.6855 14.3168C24.2256 14.0918 24.7878 14.1195 25.2808 14.2645C26.6628 14.6711 28.5 14.7553 31.614 14.0668V12.1891C29.2126 12.7861 26.5942 13.0578 24.27 12.4576C22.7704 12.0703 21.3469 11.1423 20.0621 10.0198C18.7611 8.88347 17.5138 7.46905 16.3775 5.98816C15.4055 4.72142 14.5007 3.38734 13.7 2.10526ZM31.614 16.2321C28.6474 16.8313 26.514 16.8063 24.7096 16.3137C24.5763 16.5892 24.4519 17.0776 24.3332 17.8405C24.2742 18.2195 24.2196 18.6503 24.1603 19.1161C23.9759 20.5676 23.7484 22.3592 23.2157 23.9776C22.8077 25.2182 21.9249 26.5811 20.8757 27.8947H23.276C23.7189 26.9232 24.1266 25.9979 24.4469 25.2203C24.7911 24.3845 25.0064 23.7834 25.0759 23.4776C25.2074 22.8968 25.4582 22.2718 26.0467 21.8289C26.6587 21.3679 27.4102 21.2689 28.1144 21.3005C28.8078 21.3318 29.6208 21.4966 30.538 21.7287C30.8714 21.8129 31.2299 21.9092 31.614 22.0163V16.2321ZM31.5365 24.205C30.9137 24.0266 30.3656 23.8753 29.88 23.7524C28.9939 23.5279 28.3995 23.4213 27.9933 23.4032C27.7309 23.3913 27.6247 23.42 27.5943 23.4318C27.577 23.4497 27.4923 23.5516 27.4156 23.8905C27.3059 24.3742 27.0282 25.1163 26.6894 25.9392C26.4463 26.5297 26.1573 27.1955 25.8445 27.8947H26.5438C29.0411 27.8947 31.1166 26.3018 31.5365 24.205ZM9.04035 27.8947C10.6029 27.1837 12.18 26.4589 13.6012 25.7837C16.1166 24.5887 17.6397 22.3005 18.2601 19.8979C18.5681 18.705 18.6415 17.5226 18.5168 16.4984C18.3901 15.4587 18.0695 14.6584 17.6695 14.1645C17.6087 14.0892 17.0006 13.5742 15.4214 13.7121C13.8549 13.8489 11.3864 14.6408 7.91026 17.1329C5.73429 18.6929 3.91332 19.7616 2.38597 20.4682V22.8424C2.76247 22.5384 3.18763 22.2845 3.58053 22.0679C3.98081 21.8471 4.41697 21.63 4.8456 21.4179L4.95184 21.3653C5.35224 21.1674 5.74965 20.9708 6.14429 20.7624C7.00756 20.3061 7.78381 19.8295 8.38069 19.275C9.41411 18.315 10.9057 17.1695 12.3081 16.3874C12.9999 16.0013 13.747 15.66 14.4519 15.5034C15.1136 15.3563 16.1392 15.2966 16.8541 16.0176C17.5344 16.7037 17.8163 17.7326 17.3209 19.0682C16.8503 20.3368 15.6683 21.9384 13.3836 24.0216C11.0122 26.1837 8.64067 27.2668 6.64129 27.6121C6.41578 27.6511 6.19395 27.6805 5.97658 27.7013C6.44465 27.8271 6.94144 27.8947 7.45615 27.8947H9.04035ZM2.38597 11.6247C3.54194 11.2017 4.69359 10.4282 5.73703 9.12837C7.79738 6.56187 8.29527 4.07318 8.15348 2.10526H7.45615C4.65595 2.10526 2.38597 4.10821 2.38597 6.57895V11.6247ZM27.5919 23.4329C27.5862 23.4353 27.5841 23.4368 27.5841 23.4368C27.5841 23.4368 27.5856 23.4366 27.5877 23.4353L27.5892 23.4345L27.5919 23.4329ZM13.5829 18.1668C12.3814 18.8368 11.0395 19.8621 10.1106 20.725C9.29099 21.4863 8.29646 22.0789 7.37026 22.5684C6.94463 22.7932 6.51781 23.0042 6.12222 23.2L6.01264 23.2542C5.57911 23.4687 5.19041 23.6626 4.84504 23.8532C4.10032 24.2637 3.78901 24.54 3.69142 24.7166C3.66345 24.7674 3.66011 24.7963 3.66876 24.8405C3.68101 24.9037 3.73237 25.0492 3.9367 25.2895L3.95656 25.3129L3.97494 25.3371C3.97494 25.3371 4.00294 25.3713 4.08833 25.4174C4.17652 25.465 4.31303 25.5187 4.50692 25.5608C4.89657 25.6455 5.46378 25.67 6.18318 25.5458C7.61369 25.299 9.56681 24.4742 11.6691 22.5574C13.8582 20.5616 14.7486 19.2342 15.0533 18.4134C15.2347 17.9245 15.1974 17.6597 15.1395 17.5245C15.1103 17.5292 15.0757 17.5358 15.0348 17.545C14.6903 17.6216 14.193 17.8266 13.5829 18.1668ZM15.2678 17.5145C15.2678 17.5145 15.26 17.5153 15.2481 17.5132C15.2621 17.5129 15.2678 17.5145 15.2678 17.5145Z" fill="black"/>
</svg>
